<svg width="143" height="40" viewBox="0 0 143 40" fill="none" xmlns="http://www.w3.org/2000/svg">
<g clip-path="url(#clip0_36477_57612)">
<path d="M56.8487 13.8829C56.8487 6.25045 50.5652 0.0407181 42.8419 0.0407181C35.1183 0.0407181 28.8351 6.25045 28.8351 13.8829C28.8351 21.5157 35.1183 27.7252 42.8419 27.7252C50.5652 27.7252 56.8487 21.5157 56.8487 13.8829ZM42.8424 24.8341C37.2062 24.8341 32.6368 19.9377 32.6368 13.8978C32.6368 7.85766 37.2062 2.96128 42.8424 2.96128C48.4789 2.96128 53.0484 7.85766 53.0484 13.8978C53.0484 19.9377 48.4789 24.8341 42.8424 24.8341ZM118.78 0.612332L110.105 21.5192L101.445 0.612332H97.4258L108.417 27.1536H111.018L122.01 0.612332H118.78ZM43.0864 39.084V39.2153C43.6478 39.2724 44.4864 39.3693 45.34 39.3693C47.5251 39.3693 47.8322 38.1997 47.8322 37.6891C47.8322 36.3212 45.9798 36.0615 45.8891 36.0462C46.047 36.0136 47.4014 35.7251 47.4014 34.6526C47.4014 34.4108 47.3156 34.1992 47.144 34.0167C46.9589 33.8204 46.4664 33.435 45.2017 33.435C44.4427 33.435 43.7879 33.4973 43.0864 33.589V33.728C43.503 33.8707 43.671 34.2123 43.671 34.5136V38.2899C43.671 38.613 43.482 38.9376 43.0864 39.084ZM44.4555 34.5136C44.4555 33.9529 44.8392 33.7819 45.3556 33.7819C46.4385 33.7819 46.5937 34.4954 46.5937 34.7681C46.5937 35.5948 45.8627 35.8702 45.2169 35.8702H44.4555V34.5136ZM44.4555 36.2248H45.2169C46.5389 36.2248 46.9322 36.9612 46.9322 37.6659C46.9322 38.9258 45.7649 39.0378 45.4711 39.0378C44.7352 39.0378 44.4555 38.746 44.4555 38.298V36.2248ZM131.6 0.612332H129.09L117.438 27.1536H120.711L124.455 18.6152H135.482L139.213 27.1536H143.237L131.6 0.612332ZM126.057 15.7956L130.333 6.03883L134.577 15.7956H126.057ZM100.584 35.3997C100.049 35.3997 99.7117 35.6633 99.6152 35.7375C100.11 34.5958 100.964 33.8326 101.899 33.5193L101.846 33.3423C99.9912 33.6523 99.0295 34.8074 98.673 35.8275C98.3714 36.6903 98.4018 37.721 98.7575 38.3672C99.1719 39.1198 99.8598 39.4079 100.523 39.4079C101.967 39.4079 102.53 38.188 102.53 37.4038C102.53 36.8421 102.319 36.3562 101.973 35.9933C101.632 35.6371 101.149 35.3997 100.584 35.3997ZM100.499 39.061C99.6937 39.061 99.346 38.3568 99.346 37.4038C99.346 36.4477 99.6841 35.7466 100.499 35.7466C101.339 35.7466 101.646 36.4567 101.646 37.4038C101.646 38.3596 101.314 39.061 100.499 39.061ZM25.3064 13.886H21.6482V22.9727C21.494 23.055 18.9233 24.8341 14.929 24.8341C8.41881 24.8341 3.76601 19.4083 3.76601 13.4896C3.76601 7.72294 7.75757 2.88316 13.5128 2.96747C15.8722 3.00211 18.4434 3.49234 21.1024 5.15347L23.0947 2.28065C19.9946 0.387848 16.9598 0.0407345 14.5745 0.0407345C7.74007 0.0407345 0.00244141 3.77815 0.00244141 14.3117C0.00244141 21.8814 6.11835 27.7252 13.4146 27.7252C20.2986 27.7252 25.3064 23.3794 25.3064 23.3794V13.886ZM51.1177 38.945C50.5713 38.945 50.2485 38.6699 50.2485 38.2595V36.3402H51.6869C52.1915 36.3402 52.5621 36.5246 52.7636 36.9492H52.8715V35.377H52.7636C52.5808 35.8925 52.1212 35.9547 51.6793 35.9547H50.2485V34.506C50.2485 34.0325 50.72 33.8588 51.1177 33.8588C52.0393 33.8588 52.8162 34.0098 53.2943 34.9839L53.4175 34.9686L53.1174 33.3735H53.0099C52.9354 33.4382 52.7673 33.5117 52.5482 33.5117H48.8794V33.6505C49.2958 33.6986 49.4639 34.132 49.4639 34.5213V38.2823C49.4639 38.6803 49.2783 39.0825 48.8794 39.1537V39.2922H52.6329C52.8347 39.2922 52.9317 39.3223 53.079 39.4309H53.2021L53.6403 37.7197L53.5327 37.7121C53.3405 38.0333 52.8693 38.945 51.1177 38.945ZM93.3416 0.612332H89.6831V27.1536H93.3416V0.612332ZM75.7385 26.1503C83.9702 22.6177 83.6072 14.2763 83.6072 14.2763V13.4896C83.6072 9.92627 82.21 6.69049 79.8318 4.34924C76.8052 1.36963 73.2343 0.612332 70.7793 0.612332H61.6113V27.1536H70.7793C71.7258 27.1536 73.6255 27.0572 75.7385 26.1503ZM65.2698 24.2624V3.50367H70.6167C77.8419 3.50367 79.8789 9.93493 79.8789 13.4543V14.3117C79.8789 19.215 76.8019 24.2624 70.6167 24.2624H65.2698ZM89.3244 39.2845L89.3782 39.4617C90.3617 39.2976 91.2645 38.8605 91.9086 38.0936C92.4899 37.4013 92.7547 36.5647 92.7547 35.7315C92.7547 35.2074 92.6599 34.7735 92.4702 34.4289C92.0308 33.6305 91.2854 33.3961 90.7012 33.3961C89.5447 33.3961 88.6937 34.2998 88.6937 35.3997C88.6937 35.6786 88.9042 37.4038 90.6321 37.4038C91.1779 37.4038 91.5136 37.1395 91.6108 37.0646C91.4777 37.3702 90.862 38.7715 89.3244 39.2845ZM90.7165 37.0569C89.8776 37.0569 89.5706 36.3389 89.5706 35.3997C89.5706 34.4447 89.9084 33.7431 90.7241 33.7431C91.5356 33.7431 91.8778 34.4398 91.8778 35.3997C91.8778 36.3489 91.5413 37.0569 90.7165 37.0569ZM95.5003 38.6755H94.6829C94.9015 38.4876 95.8055 37.7266 96.0658 37.477C96.3229 37.2305 97.3848 36.2576 97.3848 35.0996C97.3848 34.0046 96.5449 33.3961 95.6158 33.3961C95.2743 33.3961 93.8139 33.5079 93.5775 35.292L93.7236 35.3306C94.1561 34.4311 94.6532 34.0667 95.2696 34.0667C96.3335 34.0667 96.5158 34.9681 96.5158 35.2074C96.5158 36.0178 95.7564 36.9657 95.312 37.4619C95.025 37.7818 94.18 38.6345 93.9698 38.8449L93.5393 39.2615V39.2922H96.031C96.4487 39.2922 96.7413 39.3975 96.9387 39.5849H96.9772L97.5156 37.9512L97.4541 37.9353C96.8866 38.569 96.051 38.6755 95.5003 38.6755ZM72.9495 33.6505C73.3499 33.7245 73.6034 34.142 73.6034 34.6756V37.5116C73.6034 37.8441 73.5167 38.9762 72.0728 38.9762C71.5654 38.9762 70.5422 38.7838 70.5422 37.5116V34.5213C70.5422 34.0073 70.7936 33.6988 71.1114 33.6505V33.5117H69.2501V33.6505C69.596 33.697 69.7502 34.0924 69.7502 34.5213V37.5116C69.7502 38.8007 70.7509 39.4079 71.9421 39.4079C72.5135 39.4079 74.0341 39.1913 74.0341 37.5116V34.6756C74.0341 34.1085 74.2611 33.702 74.611 33.6505V33.5117H72.9495V33.6505ZM85.7247 39.1537V39.2922H87.6706V39.1537C87.3109 39.0947 87.0861 38.8503 87.0861 38.3596V33.3888H87.0552C86.9296 33.4776 86.5541 33.7549 85.7247 33.9822V34.1206C86.1929 34.1703 86.3091 34.577 86.3091 34.8531V38.3596C86.3091 38.8951 86.0513 39.1018 85.7247 39.1537ZM81.9714 38.5139L81.2947 34.4059C81.2517 34.1314 81.3869 33.793 81.8251 33.6505V33.5117H80.4331L78.8387 37.8493L77.3642 33.5117H75.9261V33.6505C76.3884 33.8007 76.5037 34.147 76.4642 34.3982L75.7952 38.3364C75.7289 38.7369 75.4612 39.0402 75.1799 39.1537V39.2922H76.6872V39.1537C76.3348 39.0182 76.1494 38.705 76.2105 38.3364L76.8527 34.4469L78.5255 39.3693H78.7333L80.5271 34.491L81.1715 38.5139C81.2213 38.814 80.9408 39.0427 80.6637 39.1537V39.2922H82.5406V39.1537C82.2391 39.032 81.9926 38.7772 81.9714 38.5139ZM64.6814 39.0763C64.4559 39.0385 64.2585 38.773 64.2585 38.2748V36.9106C64.2585 36.5061 64.442 36.0865 64.8506 36.0396V35.9009H62.8894V36.0396C63.2582 36.0821 63.4816 36.447 63.4816 36.9106V38.2823C63.4816 38.6852 63.1423 39.007 62.3971 39.007C61.3799 39.007 60.5203 38.351 60.5203 36.3943C60.5203 35.5451 60.6281 33.7969 62.2356 33.7969C62.8904 33.7969 63.5492 34.0994 63.7278 34.9913H63.8354L64.3276 33.7354C64.0764 33.6496 63.3574 33.3961 62.5432 33.3961C59.825 33.3961 59.6205 35.8363 59.6205 36.448C59.6205 39.307 62.1369 39.3693 62.5511 39.3693C63.0932 39.3693 64.2617 39.2808 64.6814 39.2153V39.0763ZM56.7671 38.945C56.2418 38.945 56.0594 38.5875 56.0594 38.2823V34.5213C56.0594 34.0568 56.2869 33.6928 56.6442 33.6505V33.5117H54.6904V33.6505C55.1066 33.6986 55.2748 34.13 55.2748 34.5213V38.2823C55.2748 38.6854 55.1007 39.0828 54.6904 39.1537V39.2922H57.9745C58.1601 39.2922 58.2788 39.3141 58.4053 39.4309H58.5438L58.9822 37.7197L58.8746 37.7121C58.7039 38.0231 58.2618 38.945 56.7671 38.945ZM68.0887 33.6505V33.5117H66.1349V33.6505C66.5521 33.6988 66.7194 34.1211 66.7194 34.5213V38.2823C66.7194 38.6754 66.5441 39.0941 66.1349 39.1537V39.2922H68.0887V39.1537C67.7302 39.1001 67.5039 38.7359 67.5039 38.2823V34.5213C67.5039 34.0125 67.7668 33.6899 68.0887 33.6505Z" fill="#212121"/>
</g>
<defs>
<clipPath id="clip0_36477_57612">
<rect width="143" height="40" fill="white"/>
</clipPath>
</defs>
</svg>
