<svg xmlns="http://www.w3.org/2000/svg" fill="none" viewBox="0 0 36 36" height="36" width="36">
<path fill="#FFECEB" d="M16.6819 5.01001C16.6819 5.01001 20.9619 3.97001 24.2119 6.66001C27.4619 9.35001 27.5019 10.05 30.3719 8.92001C30.3719 8.92001 31.5919 11.08 27.7819 11.46C27.7819 11.46 31.8319 13.34 31.5919 19.46C31.5919 19.46 30.8819 18.47 29.4319 18.28L29.5719 18.7C30.5019 21.47 30.3019 24.5 29.0019 27.12L25.6119 15.07L20.4819 9.05001L17.1919 8.67001L16.6719 5.00001L16.6819 5.01001Z"></path>
<path fill="#FFECEB" d="M12.8691 6.60999C12.8691 6.60999 7.45913 8.25999 8.44913 13.67L13.8491 9.61999L12.8691 6.60999Z"></path>
<path fill="white" d="M19.8894 16.2801C19.8894 18.9301 18.0094 21.1301 15.5194 21.6401C14.6694 21.8101 13.9294 22.3301 13.3694 22.9901L11.2794 25.4601C10.6894 26.1601 9.84942 26.6201 8.93942 26.7601L8.40942 26.8401C6.92942 27.0501 5.45942 26.3701 4.66942 25.1101C3.94942 23.9601 3.90942 22.5101 4.54942 21.3101L8.00942 14.9701C9.30942 12.5901 11.3194 10.6101 13.8394 9.61005C15.1994 9.07005 16.6894 8.77005 18.2494 8.77005C18.2494 8.77005 26.0694 7.46006 28.4394 27.9201C28.9094 31.9401 22.2594 33.4101 17.8994 33.4101C16.5694 33.4101 15.2894 33.2101 14.0794 32.8301L14.2094 32.6901C16.1794 30.7601 17.3994 28.0601 17.3994 25.0801C17.3994 23.9001 17.2094 22.7701 16.8594 21.7101"></path>
<path fill="#212121" d="M17.9082 34.41C16.5082 34.41 15.1182 34.2 13.7882 33.79C13.4682 33.69 13.2182 33.43 13.1182 33.1C13.0182 32.77 13.1082 32.42 13.3282 32.17L13.4582 32.03C15.3682 30.15 16.3982 27.7 16.3982 25.09C16.3982 24.23 16.2882 23.38 16.0682 22.56C15.9482 22.59 15.8282 22.62 15.7082 22.64C15.1382 22.76 14.5782 23.12 14.1182 23.66L12.0282 26.13C11.2782 27.02 10.2282 27.6 9.06817 27.77L8.53817 27.85C6.65817 28.12 4.80817 27.26 3.80817 25.66C2.89817 24.2 2.83817 22.36 3.65817 20.85L7.11817 14.51C8.59817 11.8 10.8482 9.74005 13.4582 8.70005C14.9582 8.10005 16.5482 7.80005 18.1682 7.79005C18.6082 7.74005 20.2382 7.69005 22.1782 9.15005C24.7082 11.06 28.0282 15.84 29.4182 27.82C29.5582 29.05 29.1882 30.2 28.3382 31.16C26.1882 33.57 21.3682 34.43 17.8982 34.43L17.9082 34.41ZM15.9482 32.25C16.5982 32.36 17.2482 32.41 17.9082 32.41C21.1082 32.41 25.2682 31.6 26.8582 29.81C27.3382 29.28 27.5282 28.69 27.4482 28.03C26.1582 16.89 23.2782 12.52 21.0982 10.8C19.5882 9.62005 18.4382 9.75005 18.3982 9.75005C18.3582 9.75005 18.2982 9.76005 18.2482 9.76005C16.8482 9.76005 15.4982 10.02 14.2082 10.53C12.0282 11.4 10.1382 13.14 8.88817 15.44L5.42817 21.78C4.94817 22.65 4.98817 23.72 5.51817 24.57C6.09817 25.5 7.17817 26 8.26817 25.84L8.79817 25.76C9.46817 25.66 10.0782 25.32 10.5182 24.81L12.6082 22.34C13.3582 21.45 14.2982 20.87 15.3182 20.66C17.3882 20.24 18.8882 18.39 18.8882 16.28C18.8882 15.73 19.3382 15.28 19.8882 15.28C20.4382 15.28 20.8882 15.73 20.8882 16.28C20.8882 18.52 19.7182 20.56 17.9182 21.72C18.2382 22.8 18.4082 23.93 18.4082 25.07C18.4082 27.7 17.5482 30.2 15.9482 32.24V32.25Z"></path>
<path fill="white" d="M13.4195 8.84004C13.4195 8.84004 13.2695 8.04004 13.3795 6.40004C13.4895 4.76004 12.8595 3.13004 13.5395 2.97004C14.3295 2.79004 16.8595 5.04004 16.7395 8.23004"></path>
<path fill="#212121" d="M13.4187 9.84003C12.9487 9.84003 12.5287 9.51003 12.4387 9.03003C12.4187 8.93003 12.2587 8.05003 12.3887 6.33003C12.4287 5.77003 12.3587 5.18003 12.3087 4.66003C12.1987 3.66003 12.0487 2.30003 13.3187 2.00003C14.0487 1.83003 14.7987 2.29003 15.2987 2.70003C16.4887 3.68003 17.8387 5.73003 17.7487 8.28003C17.7287 8.83003 17.2787 9.27003 16.7087 9.24003C16.1587 9.22003 15.7287 8.76003 15.7487 8.20003C15.8087 6.50003 14.9787 5.19003 14.3087 4.50003C14.3687 5.07003 14.4387 5.76003 14.3887 6.47003C14.2887 7.92003 14.4087 8.65003 14.4087 8.65003C14.5087 9.19003 14.1487 9.71003 13.6087 9.81003C13.5487 9.82003 13.4887 9.83003 13.4287 9.83003L13.4187 9.84003Z"></path>
<path fill="white" d="M10.9627 5.95994C9.98267 4.64994 9.46267 3.64994 8.98267 3.15994C8.39267 2.55994 7.86267 5.96994 8.85267 8.58994"></path>
<path fill="#212121" d="M8.85149 9.58997C8.45149 9.58997 8.07149 9.33997 7.91149 8.93997C7.05149 6.65997 7.05149 3.01997 8.22149 2.26997C8.70149 1.96997 9.29149 2.03997 9.69149 2.45997C10.0215 2.78997 10.3115 3.23997 10.6815 3.80997C10.9715 4.24997 11.3115 4.76997 11.7515 5.35997C12.0815 5.79997 11.9915 6.42997 11.5515 6.75997C11.1115 7.08997 10.4815 6.99997 10.1515 6.55997C9.82149 6.10997 9.53149 5.69997 9.29149 5.32997C9.29149 6.17997 9.40149 7.24997 9.77149 8.22997C9.96149 8.74997 9.70149 9.31997 9.19149 9.51997C9.07149 9.55997 8.95149 9.57997 8.84149 9.57997L8.85149 9.58997Z"></path>
<path fill="#212121" d="M28.4902 27.94C28.3402 27.94 28.1902 27.91 28.0502 27.84C27.5502 27.6 27.3502 27 27.6002 26.5C29.0202 23.63 29.3602 21.18 28.6302 19.03L28.4902 18.61C28.3802 18.28 28.4502 17.92 28.6602 17.66C28.8702 17.4 29.2202 17.26 29.5602 17.3C29.9102 17.35 30.2302 17.43 30.5102 17.53C29.9902 13.7 27.4802 12.43 27.3502 12.37C26.9502 12.17 26.7202 11.73 26.8002 11.29C26.8802 10.85 27.2402 10.51 27.6802 10.47C27.8002 10.46 27.9202 10.44 28.0302 10.43C27.0002 10.32 26.1802 9.68005 24.8602 8.53005C24.4902 8.21005 24.0702 7.85005 23.5702 7.44005C20.7402 5.10005 16.9502 5.98005 16.9102 5.99005C16.3802 6.12005 15.8302 5.79005 15.7002 5.25005C15.5702 4.71005 15.9002 4.17005 16.4402 4.04005C16.6302 3.99005 21.2502 2.92005 24.8402 5.89005C25.3502 6.31005 25.7902 6.69005 26.1602 7.01005C27.4802 8.15005 28.7602 8.47671 30.0002 7.99005C30.4602 7.81005 30.9902 7.99005 31.2402 8.43005C31.3102 8.55005 31.8802 9.63005 31.3002 10.74C31.0402 11.24 30.6102 11.63 30.0102 11.92C31.2902 13.23 32.7402 15.59 32.5902 19.5C32.5702 19.93 32.2902 20.3 31.8802 20.42C31.5502 20.52 31.1902 20.44 30.9302 20.21C31.1902 22.4 30.6802 24.76 29.3802 27.39C29.2102 27.74 28.8502 27.95 28.4802 27.95L28.4902 27.94Z"></path>
<path fill="#212121" d="M8.43823 14.67C7.96823 14.67 7.54823 14.33 7.45823 13.85C6.55823 8.92005 10.2782 6.13005 12.3782 5.35005C12.8982 5.16005 13.4682 5.42005 13.6682 5.94005C13.8582 6.46005 13.5982 7.03005 13.0882 7.23005C12.8882 7.31005 8.61823 9.01005 9.43823 13.5C9.53823 14.04 9.17823 14.56 8.63823 14.66C8.57823 14.67 8.51823 14.68 8.45823 14.68L8.43823 14.67Z"></path>
<path fill="#212121" d="M5.24087 26.43C4.82087 26.43 4.43087 26.16 4.29087 25.74C4.12087 25.22 4.41087 24.65 4.93087 24.48C6.35087 24.02 8.55087 22.88 8.79087 21.91C8.92087 21.37 9.46087 21.04 9.99087 21.17C10.5309 21.3 10.8609 21.84 10.7309 22.37C10.1609 24.77 6.31087 26.13 5.55087 26.38C5.45087 26.41 5.34087 26.43 5.24087 26.43Z"></path>
</svg>
