<svg xmlns="http://www.w3.org/2000/svg" fill="none" viewBox="0 0 36 36" height="36" width="36">
<path fill="#FFECEB" d="M15.5494 15.0699H6.35938V28.9899C6.35938 30.0899 7.24937 30.9799 8.33938 30.9799H27.9894C29.0894 30.9799 29.9794 30.0899 29.9794 28.9899V15.0699H20.7794"></path>
<path fill="#212121" d="M27.9894 31.9799H8.33938C6.69938 31.9799 5.35938 30.6399 5.35938 28.9899V15.0699C5.35938 14.5199 5.80937 14.0699 6.35938 14.0699H15.5494C16.0994 14.0699 16.5494 14.5199 16.5494 15.0699C16.5494 15.6199 16.0994 16.0699 15.5494 16.0699H7.35938V28.9899C7.35938 29.5399 7.79937 29.9799 8.33938 29.9799H27.9894C28.5394 29.9799 28.9794 29.5399 28.9794 28.9899V16.0699H20.7794C20.2294 16.0699 19.7794 15.6199 19.7794 15.0699C19.7794 14.5199 20.2294 14.0699 20.7794 14.0699H29.9794C30.5294 14.0699 30.9794 14.5199 30.9794 15.0699V28.9899C30.9794 30.6399 29.6394 31.9799 27.9894 31.9799Z"></path>
<path fill="#FFECEB" d="M15.5508 12.25V10.01H17.4608V9.96997H29.2708C30.2308 9.96997 31.0008 10.74 31.0008 11.69V15.06H20.7808"></path>
<path fill="#212121" d="M31.0008 16.06H20.7808C20.2308 16.06 19.7808 15.61 19.7808 15.06C19.7808 14.51 20.2308 14.06 20.7808 14.06H30.0008V11.69C30.0008 11.29 29.6708 10.97 29.2708 10.97H17.7308C17.6408 11 17.5508 11.01 17.4608 11.01H16.5508V12.25C16.5508 12.8 16.1008 13.25 15.5508 13.25C15.0008 13.25 14.5508 12.8 14.5508 12.25V10.01C14.5508 9.45997 15.0008 9.00997 15.5508 9.00997H17.1908C17.2808 8.97997 17.3708 8.96997 17.4608 8.96997H29.2708C30.7808 8.96997 32.0008 10.19 32.0008 11.69V15.06C32.0008 15.61 31.5508 16.06 31.0008 16.06Z"></path>
<path fill="#FFECEB" d="M15 9.96997H7.05984C6.10984 9.96997 5.33984 10.74 5.33984 11.69V15.06H15.5498"></path>
<path fill="#212121" d="M15.5498 16.06H5.33984C4.78984 16.06 4.33984 15.61 4.33984 15.06V11.69C4.33984 10.19 5.55984 8.96997 7.05984 8.96997H12.0298C12.5798 8.96997 13.0298 9.41997 13.0298 9.96997C13.0298 10.52 12.5798 10.97 12.0298 10.97H7.05984C6.65984 10.97 6.33984 11.29 6.33984 11.69V14.06H15.5498C16.0998 14.06 16.5498 14.51 16.5498 15.06C16.5498 15.61 16.0998 16.06 15.5498 16.06Z"></path>
<path fill="white" d="M20.7808 10.01H15.5508V30.98H20.7808V10.01Z"></path>
<path fill="#212121" d="M20.7808 31.98H15.5508C15.0008 31.98 14.5508 31.53 14.5508 30.98V10.01C14.5508 9.46001 15.0008 9.01001 15.5508 9.01001H20.7808C21.3308 9.01001 21.7808 9.46001 21.7808 10.01V30.98C21.7808 31.53 21.3308 31.98 20.7808 31.98ZM16.5508 29.98H19.7808V11.01H16.5508V29.98Z"></path>
<path fill="#212121" d="M15.5486 13.24C15.0086 13.24 14.5586 12.8 14.5586 12.25V10.01C14.5586 9.47002 14.9986 9.02002 15.5486 9.02002H17.4586C17.9986 9.02002 18.4486 9.46002 18.4486 10.01C18.4486 10.56 18.0086 11 17.4586 11H16.5386V12.25C16.5386 12.79 16.0986 13.24 15.5486 13.24Z"></path>
<path fill="#212121" d="M17.4589 10.96H12.0289C11.7289 10.96 11.4489 10.83 11.2589 10.59L10.6689 9.86002C9.49891 8.41002 9.72891 6.27002 11.1789 5.10002C12.6289 3.94002 14.8289 4.20002 15.9489 5.61002L17.6889 7.76002C18.2089 8.41002 18.4689 9.20002 18.4389 10C18.4189 10.53 17.9889 10.95 17.4589 10.95V10.96ZM12.4989 8.99002H16.1389L14.4089 6.86002C13.9289 6.26002 13.0289 6.15002 12.4089 6.65002C11.8089 7.14002 11.7089 8.03002 12.1989 8.63002L12.4889 8.99002H12.4989Z"></path>
<path fill="#212121" d="M23.9592 10.96C23.7392 10.96 23.5192 10.89 23.3392 10.74C22.9192 10.4 22.8492 9.77997 23.1892 9.34997L23.7792 8.61997C24.0192 8.31997 24.1292 7.95997 24.0892 7.57997C24.0492 7.20997 23.8692 6.86997 23.5692 6.63997C22.9492 6.12997 22.0492 6.25997 21.5892 6.83997L19.8292 9.00997C19.6192 9.27997 19.5092 9.60997 19.5192 9.92997L18.5392 10.01H17.5492C17.5192 9.20997 17.7792 8.41997 18.2892 7.77997L20.0492 5.60997C20.6892 4.80997 21.6492 4.33997 22.6892 4.33997C23.4592 4.33997 24.2092 4.60997 24.8092 5.09997C25.5092 5.65997 25.9492 6.46997 26.0492 7.36997C26.1492 8.26997 25.8792 9.14997 25.3092 9.85997L24.7192 10.59C24.5292 10.83 24.2392 10.96 23.9492 10.96H23.9592Z"></path>
</svg>
