<svg width="172" height="127" viewBox="0 0 172 127" fill="none" xmlns="http://www.w3.org/2000/svg">
<g clip-path="url(#clip0_29937_33906)">
<path d="M71.0312 68.452C71.0312 60.7215 64.6634 54.4321 56.8364 54.4321C49.0091 54.4321 42.6416 60.7215 42.6416 68.452C42.6416 76.1827 49.0091 82.4719 56.8364 82.4719C64.6634 82.4719 71.0312 76.1827 71.0312 68.452ZM56.8369 79.5437C51.125 79.5437 46.4943 74.5844 46.4943 68.467C46.4943 62.3494 51.125 57.3901 56.8369 57.3901C62.5491 57.3901 67.1799 62.3494 67.1799 68.467C67.1799 74.5844 62.5491 79.5437 56.8369 79.5437ZM133.794 55.011L125.003 76.1863L116.227 55.011H112.153L123.292 81.893H125.928L137.068 55.011H133.794ZM57.0842 93.9765V94.1095C57.6531 94.1674 58.503 94.2655 59.3681 94.2655C61.5824 94.2655 61.8937 93.0808 61.8937 92.5638C61.8937 91.1782 60.0164 90.9153 59.9245 90.8998C60.0845 90.8667 61.4571 90.5745 61.4571 89.4882C61.4571 89.2434 61.3702 89.029 61.1962 88.8442C61.0087 88.6454 60.5095 88.255 59.2278 88.255C58.4587 88.255 57.7951 88.3181 57.0842 88.411V88.5518C57.5064 88.6963 57.6766 89.0423 57.6766 89.3475V93.1722C57.6766 93.4995 57.4851 93.8283 57.0842 93.9765ZM58.4716 89.3475C58.4716 88.7796 58.8605 88.6063 59.3838 88.6063C60.4813 88.6063 60.6386 89.329 60.6386 89.6053C60.6386 90.4426 59.8977 90.7215 59.2433 90.7215H58.4716V89.3475ZM58.4716 91.0806H59.2433C60.5831 91.0806 60.9816 91.8265 60.9816 92.5402C60.9816 93.8163 59.7986 93.9297 59.5009 93.9297C58.7551 93.9297 58.4716 93.6342 58.4716 93.1805V91.0806ZM146.786 55.011H144.242L132.434 81.893H135.751L139.545 73.245H150.72L154.501 81.893H158.579L146.786 55.011ZM141.169 70.3891L145.502 60.5072L149.803 70.3891H141.169ZM115.354 90.245C114.812 90.245 114.47 90.5119 114.372 90.5871C114.873 89.4307 115.738 88.6577 116.687 88.3404L116.632 88.1611C114.753 88.4751 113.778 89.645 113.417 90.6782C113.111 91.5521 113.142 92.596 113.503 93.2506C113.923 94.0128 114.62 94.3046 115.292 94.3046C116.755 94.3046 117.326 93.069 117.326 92.2748C117.326 91.7059 117.112 91.2138 116.761 90.8462C116.416 90.4854 115.926 90.245 115.354 90.245ZM115.268 93.9533C114.451 93.9533 114.099 93.24 114.099 92.2748C114.099 91.3064 114.442 90.5963 115.268 90.5963C116.118 90.5963 116.429 91.3155 116.429 92.2748C116.429 93.2429 116.094 93.9533 115.268 93.9533ZM39.0655 68.455H35.3582V77.6584C35.2019 77.7418 32.5967 79.5437 28.5488 79.5437C21.9512 79.5437 17.236 74.0483 17.236 68.0536C17.236 62.2129 21.2811 57.311 27.1136 57.3964C29.5047 57.4315 32.1104 57.928 34.8051 59.6104L36.8241 56.7008C33.6824 54.7836 30.6069 54.4321 28.1895 54.4321C21.2634 54.4321 13.4219 58.2175 13.4219 68.8862C13.4219 76.5531 19.6199 82.4719 27.014 82.4719C33.9905 82.4719 39.0655 78.0703 39.0655 78.0703V68.455ZM65.2233 93.8358C64.6695 93.8358 64.3424 93.5571 64.3424 93.1414V91.1975H65.8001C66.3115 91.1975 66.6871 91.3843 66.8913 91.8143H67.0006V90.2219H66.8913C66.706 90.7441 66.2402 90.8071 65.7924 90.8071H64.3424V89.3398C64.3424 88.8602 64.8202 88.6842 65.2233 88.6842C66.1572 88.6842 66.9446 88.8372 67.4292 89.8238L67.5539 89.8083L67.2499 88.1927H67.1409C67.0654 88.2583 66.8951 88.3327 66.673 88.3327H62.9549V88.4733C63.377 88.522 63.5473 88.9609 63.5473 89.3553V93.1645C63.5473 93.5676 63.3592 93.975 62.9549 94.0471V94.1874H66.7588C66.9633 94.1874 67.0616 94.2179 67.2109 94.3279H67.3357L67.7797 92.5948L67.6707 92.5871C67.4759 92.9123 66.9984 93.8358 65.2233 93.8358ZM108.014 55.011H104.306V81.893H108.014V55.011ZM90.1746 80.8768C98.5168 77.2988 98.1489 68.8504 98.1489 68.8504V68.0536C98.1489 64.4445 96.733 61.1672 94.3228 58.7959C91.2556 55.778 87.6367 55.011 85.1488 55.011H75.8578V81.893H85.1488C86.108 81.893 88.0332 81.7953 90.1746 80.8768ZM79.5654 78.9647V57.9395H84.984C92.3062 57.9395 94.3706 64.4533 94.3706 68.0178V68.8862C94.3706 73.8525 91.2523 78.9647 84.984 78.9647H79.5654ZM103.943 94.1796L103.997 94.3591C104.994 94.1929 105.909 93.7502 106.562 92.9734C107.151 92.2722 107.419 91.4249 107.419 90.581C107.419 90.0502 107.323 89.6107 107.131 89.2617C106.686 88.4531 105.93 88.2156 105.338 88.2156C104.166 88.2156 103.304 89.1309 103.304 90.245C103.304 90.5274 103.517 92.2748 105.268 92.2748C105.821 92.2748 106.161 92.0071 106.26 91.9312C106.125 92.2407 105.501 93.66 103.943 94.1796ZM105.354 91.9234C104.503 91.9234 104.192 91.1962 104.192 90.245C104.192 89.2777 104.535 88.567 105.361 88.567C106.184 88.567 106.531 89.2727 106.531 90.245C106.531 91.2063 106.189 91.9234 105.354 91.9234ZM110.202 93.5628H109.373C109.595 93.3725 110.511 92.6018 110.775 92.3489C111.035 92.0993 112.111 91.1139 112.111 89.941C112.111 88.8319 111.26 88.2157 110.319 88.2157C109.973 88.2157 108.493 88.3289 108.253 90.1358L108.401 90.1749C108.839 89.2639 109.343 88.8948 109.968 88.8948C111.046 88.8948 111.231 89.8078 111.231 90.0502C111.231 90.871 110.461 91.831 110.011 92.3336C109.72 92.6576 108.864 93.5213 108.651 93.7344L108.214 94.1563V94.1874H110.739C111.163 94.1874 111.459 94.294 111.659 94.4839H111.698L112.244 92.8292L112.182 92.8131C111.607 93.455 110.76 93.5628 110.202 93.5628ZM87.3481 88.4733C87.754 88.5482 88.0108 88.9711 88.0108 89.5115V92.3839C88.0108 92.7207 87.923 93.8673 86.4597 93.8673C85.9455 93.8673 84.9085 93.6725 84.9085 92.3839V89.3553C84.9085 88.8347 85.1633 88.5222 85.4854 88.4733V88.3327H83.599V88.4733C83.9496 88.5204 84.1059 88.9208 84.1059 89.3553V92.3839C84.1059 93.6896 85.1201 94.3046 86.3272 94.3046C86.9063 94.3046 88.4473 94.0852 88.4473 92.3839V89.5115C88.4473 88.9371 88.6774 88.5254 89.0319 88.4733V88.3327H87.3481V88.4733ZM100.295 94.0471V94.1874H102.267V94.0471C101.902 93.9873 101.675 93.7399 101.675 93.2429V88.2082H101.643C101.516 88.2981 101.135 88.579 100.295 88.8092V88.9494C100.769 88.9997 100.887 89.4116 100.887 89.6913V93.2429C100.887 93.7852 100.626 93.9946 100.295 94.0471ZM96.4912 93.3991L95.8053 89.2384C95.7618 88.9604 95.8988 88.6176 96.3429 88.4733V88.3327H94.9322L93.3164 92.726L91.8221 88.3327H90.3647V88.4733C90.8332 88.6254 90.95 88.9762 90.91 89.2306L90.2321 93.2193C90.1648 93.6249 89.8936 93.9322 89.6085 94.0471V94.1874H91.1361V94.0471C90.7789 93.9099 90.591 93.5926 90.6529 93.2193L91.3038 89.2799L92.999 94.2655H93.2096L95.0274 89.3245L95.6805 93.3991C95.731 93.7031 95.4468 93.9347 95.166 94.0471V94.1874H97.068V94.0471C96.7624 93.9239 96.5127 93.6658 96.4912 93.3991ZM78.969 93.9688C78.7406 93.9304 78.5405 93.6615 78.5405 93.1569V91.7752C78.5405 91.3655 78.7265 90.9406 79.1405 90.893V90.7525H77.153V90.893C77.5268 90.9361 77.7531 91.3057 77.7531 91.7752V93.1645C77.7531 93.5726 77.4093 93.8986 76.6541 93.8986C75.6232 93.8986 74.7521 93.2341 74.7521 91.2524C74.7521 90.3922 74.8614 88.6216 76.4904 88.6216C77.154 88.6216 77.8217 88.9279 78.0026 89.8313H78.1117L78.6105 88.5592C78.356 88.4724 77.6273 88.2157 76.8022 88.2157C74.0475 88.2157 73.8402 90.6872 73.8402 91.3067C73.8402 94.2024 76.3904 94.2655 76.8101 94.2655C77.3595 94.2655 78.5438 94.1759 78.969 94.1095V93.9688ZM70.9485 93.8358C70.4162 93.8358 70.2313 93.4737 70.2313 93.1645V89.3553C70.2313 88.8848 70.4619 88.5162 70.8239 88.4733V88.3327H68.8439V88.4733C69.2657 88.522 69.4362 88.9589 69.4362 89.3553V93.1645C69.4362 93.5729 69.2597 93.9753 68.8439 94.0471V94.1874H72.1722C72.3602 94.1874 72.4805 94.2096 72.6087 94.3279H72.749L73.1933 92.5948L73.0843 92.5871C72.9113 92.902 72.4632 93.8358 70.9485 93.8358ZM82.4221 88.4733V88.3327H80.4421V88.4733C80.8648 88.5222 81.0344 88.9499 81.0344 89.3553V93.1645C81.0344 93.5627 80.8568 93.9868 80.4421 94.0471V94.1874H82.4221V94.0471C82.0588 93.9928 81.8295 93.624 81.8295 93.1645V89.3553C81.8295 88.84 82.0958 88.5132 82.4221 88.4733ZM79.0874 97.7204C79.6873 98.185 82.268 100.315 82.4858 100.043C82.7448 99.7178 80.4007 97.8823 79.1119 96.8313C78.9803 96.7239 78.9708 96.2885 79.3879 95.7824C78.682 95.8969 77.7566 96.6898 79.0874 97.7204ZM84.2047 96.4624C85.762 99.0289 83.7173 102.94 83.1445 103.901C83.0919 103.989 82.9788 104.012 82.8972 103.955C82.5625 103.719 80.4046 102.389 79.7189 100.972C79.0333 99.555 80.0874 99.0599 79.9202 98.8944C79.753 98.7289 78.7331 98.9106 78.5532 100.031C78.5532 100.031 78.2646 100.983 79.9251 102.923C80.4608 103.55 83.0025 105.243 83.0025 105.243C83.2376 105.422 83.5625 105.336 83.7043 105.067C85.2083 102.22 86.1918 99.3198 85.4937 97.3534C85.068 96.1543 83.8854 95.9361 84.2047 96.4624ZM76.6977 86.7101C77.4763 86.7135 77.4066 86.7008 76.7541 86.4303C75.5586 85.9347 75.0695 85.5722 74.3203 85.138L72.8682 84.2076C72.1327 83.689 71.8985 83.1725 71.9293 82.8613C71.9643 82.507 72.7374 82.0624 73.0096 81.8918C73.5775 81.536 74.0691 81.0096 74.212 80.3583C74.2836 80.0315 73.961 80.3288 73.8006 80.4152C72.378 81.1811 70.5441 82.1284 70.3534 82.2206C70.1821 82.3021 70.1278 82.3327 70.1122 82.4342C69.9532 83.4713 74.1306 86.6989 76.6977 86.7101ZM68.4936 86.5977C67.2583 86.0297 65.9416 85.4725 65.6647 85.0445C65.2452 84.3965 65.0916 83.4682 65.0785 82.6172C65.0757 82.4361 65.1394 81.6343 64.968 81.8349C64.8755 81.9431 64.2522 82.6131 64.2522 83.3628C64.2522 83.6893 64.3293 83.9169 64.4096 84.2727C64.6494 85.3349 64.5724 85.6533 65.5314 86.1054C67.2112 86.8975 68.9163 86.7921 68.4936 86.5977ZM91.1822 24.9758C91.6716 24.6716 92.3421 22.3676 92.4177 21.8307C92.4172 21.8301 92.4506 21.6587 92.3818 21.6499C92.3525 21.6461 92.3066 21.6989 92.2375 21.8821C92.1007 22.2445 91.0313 24.2147 90.821 24.3084C90.1157 24.6226 88.6997 23.6751 87.9909 23.2345C87.7835 24.3433 87.8314 26.7056 88.5722 27.5619C88.9005 27.9414 89.1282 27.777 89.1282 27.777C89.1282 27.777 88.6733 27.2456 88.5975 26.2206C88.5454 25.517 88.5121 24.2497 88.5386 24.2839C89.0813 24.9843 90.581 25.3495 91.1822 24.9758ZM77.9735 35.0469C77.966 35.0033 77.93 34.975 77.8868 34.9753C75.8703 35.0248 74.0906 36.1746 73.3559 37.8978C72.5261 39.3068 71.2995 40.3881 69.7109 41.1109C69.5238 41.1961 69.5734 41.3772 69.8251 41.3381C70.6301 41.2136 71.4046 40.9199 72.0644 40.4891C74.9317 38.6135 73.6281 36.6523 77.918 35.1437C77.9585 35.1295 77.9813 35.0892 77.9735 35.0469ZM115.413 28.5123C114.296 28.375 113.353 27.5506 113.19 27.6536C113.027 27.7566 114.628 29.9472 117.861 29.4126C119.461 29.1478 120.583 28.7891 122.792 30.2642C122.795 30.266 122.797 30.2665 122.8 30.2685C123.319 30.6318 123.496 30.9155 123.582 30.9711C123.667 31.0254 123.505 30.4637 123.232 30.0513C120.959 26.9105 117.357 27.3497 115.468 26.3986C113.81 25.5642 111.794 24.8525 110.089 26.6018C109.988 26.705 110.127 26.7461 110.319 26.6611C110.566 26.5519 111.954 25.4549 114.855 27.1716C116.239 27.9904 118.7 28.2578 118.981 28.2761C118.183 28.2244 116.729 28.6742 115.413 28.5123ZM86.588 29.9192C85.8552 29.3452 84.7701 29.4652 84.8214 29.7719C84.8479 29.9315 85.2169 29.8614 85.2169 29.8614C87.7407 29.9192 87.2588 36.6087 88.7317 39.1747C89.3975 40.3349 90.9865 41.1116 90.9865 41.1116C93.6864 42.3443 98.3883 44.3799 98.3883 44.3799C100.949 45.3252 102.234 44.8923 102.524 44.7136C102.67 44.6237 102.575 44.5517 102.453 44.562C102.332 44.5723 101.776 44.8096 99.632 44.1722C104.653 40.8242 107.065 36.5045 107.096 36.4381C107.973 36.2662 108.642 36.0673 109.394 35.7696C110.161 35.4662 111.769 34.6443 111.344 34.4048C108.726 35.3273 107.625 35.5632 106.333 35.5787C105.48 35.5889 104.458 35.4254 103.168 35.5765C101.155 35.8122 99.3671 37.5895 99.0533 39.005C99.0317 39.1024 99.1295 39.2125 99.1764 39.1218C100.928 35.7376 104.508 36.3199 106.466 36.4095C106.445 36.43 101.648 42.5831 98.5461 43.823C96.9332 43.2517 94.4684 41.9522 92.6396 40.9105C93.4314 40.588 94.0269 39.6026 94.1312 38.7736C94.2721 37.4866 93.6273 36.5814 93.1736 35.4715C92.7801 36.4887 93.2157 37.6637 93.0793 38.6383C92.9355 39.3421 92.701 40.132 92.1129 40.6075C91.1739 40.0618 90.4778 39.6263 90.2814 39.4711C89.5691 38.8462 89.8766 38.2754 90.0215 37.9224C90.3472 37.1296 91.3683 36.405 91.372 35.1805C91.378 33.3793 89.6227 31.2229 89.3197 30.5677C89.1258 30.149 88.9516 29.6784 88.8383 29.6862C88.527 29.7075 89.8013 32.6551 90.353 34.0805C90.7938 35.5761 90.4633 36.293 89.9667 36.8981C89.5704 37.3809 89.3126 37.8447 89.154 38.1875C88.8833 37.5882 88.6341 36.7646 88.5295 35.7521C88.3014 33.8453 88.1237 31.1217 86.588 29.9192ZM84.2398 44.9051C82.6637 45.3087 81.7343 46.2304 81.1873 47.7931C80.7893 48.9301 79.447 50.5102 78.0952 51.3024C77.9695 51.3762 78.0159 51.4814 78.1674 51.4524C78.8682 51.3177 79.5479 50.9922 80.1351 50.4937C82.5825 48.4263 81.2133 46.7803 84.3212 45.1144C84.4362 45.0528 84.3661 44.8728 84.2398 44.9051ZM129.244 29.8218C129.303 29.8576 129.594 29.4574 129.594 29.4574C130.124 28.7333 130.209 27.8057 129.962 26.8824C129.378 24.6945 127.008 23.8676 126.859 24.0005C126.71 24.1333 130.416 26.2761 129.279 29.5313C129.279 29.5316 129.162 29.7724 129.244 29.8218ZM78.2428 48.7145C76.3074 49.2281 76.5357 52.5897 72.9995 53.4416C71.2269 53.8686 67.6486 53.1912 65.7267 54.3284C65.7267 54.3284 65.3091 54.7932 66.2837 54.4911C66.8991 54.3003 68.7129 54.0668 70.6363 54.27C71.4398 54.3548 72.4982 54.3497 72.9941 54.3031C77.3821 53.8907 76.9668 50.0096 78.2882 48.7984C78.3269 48.763 78.2936 48.701 78.2428 48.7145ZM102.815 48.3594C103.076 48.1996 102.093 48.2348 101.059 48.0397C100.686 47.9693 100.3 47.8998 99.9252 47.8155C98.4882 47.4925 97.9229 45.8603 97.4406 45.3083C96.8636 44.648 88.6625 43.1901 86.947 42.1707C85.7913 41.484 83.5225 35.9347 83.0278 33.1595C83.0189 33.1093 82.9461 33.108 82.9367 33.1582C82.7558 34.1299 82.9653 35.0414 83.2576 36.7234C83.4605 37.8909 84.1099 39.8328 85.1229 41.3833C84.5905 41.6323 84.0418 41.8287 83.4837 41.9572C82.4364 42.2121 81.3664 42.1019 80.2907 42.232C77.8874 42.3693 75.6362 43.5864 74.6781 45.9205C74.2196 47.0002 74.0063 48.0913 73.6541 49.0409C72.9059 51.3611 70.7989 51.7278 68.7326 51.3063C69.6473 51.1803 70.5362 50.564 70.9801 49.4388C71.0208 49.3356 71.0005 49.2301 70.9567 49.2852C69.2401 51.4414 66.7678 50.6172 66.6669 50.5933C66.5691 50.5701 66.643 50.8593 66.9853 51.0754C69.6545 52.7612 73.3364 52.9719 74.725 49.4607C75.4845 47.467 75.7403 45.3781 77.5911 44.1801C79.308 42.9818 81.7139 43.2234 83.661 42.5303C84.2446 42.2964 84.7924 41.9947 85.2936 41.6372C85.6404 42.1322 86.0252 42.5793 86.4476 42.9332C86.79 43.22 87.3282 43.4242 88.0608 43.6175C87.498 44.415 86.6508 45.0306 85.8551 45.8228C84.0241 47.6618 84.9239 50.0718 87.2937 50.7433C89.0946 51.2282 90.9039 51.0299 92.638 51.4939C94.1056 51.8684 95.0047 53.0573 94.8052 54.4394C94.7767 54.6369 95.0386 54.4757 95.1145 54.1266C95.4924 52.6077 94.2728 51.1863 92.8967 50.7216C91.9894 50.3743 91.0547 50.2722 90.1586 50.1501C88.8972 49.9756 87.5797 49.9814 86.5713 49.2569C84.2419 47.584 87.7497 45.5438 88.5097 43.7296C88.8359 43.807 89.1929 43.885 89.5831 43.9681C86.224 46.4453 87.6159 48.4916 89.2715 48.849C89.4272 48.8826 89.5038 48.6684 89.3645 48.591C86.3755 46.9272 90.7885 44.4305 91.0334 44.2778C91.3597 44.349 94.9312 45.123 96.1258 45.6576C94.7933 46.4356 93.0506 47.2806 89.6808 47.3267C89.3828 47.3307 89.3846 47.4554 89.6864 47.5045C92.899 48.0273 95.2363 47.3721 96.9479 46.4061C97.4093 47.0306 98.2906 48.1448 99.4237 48.6276C99.4237 48.6276 100.802 48.8697 102.815 48.3594ZM81.0939 36.5176C81.6852 35.6925 81.6709 34.5663 82.5195 33.9525C81.4523 34.0774 81.0593 35.3676 80.464 36.0808C79.9141 36.8071 79.1235 37.235 78.2335 37.4783C77.6311 37.6484 76.9861 37.7115 76.3053 37.7776C77.9132 38.4927 80.116 38.0961 81.0939 36.5176ZM52.6938 100.425C52.618 99.8557 52.5102 97.6212 52.1859 97.6215C52.0866 97.6215 52.1026 97.7838 52.1073 98.4585C52.1211 100.381 52.0886 103.821 54.5508 106.457C57.0077 108.768 58.8522 109.634 58.6437 112.369C58.629 112.564 58.5572 112.594 58.2992 112.599C58.041 112.604 54.5969 112.724 53.0438 112.471C52.2855 112.348 52.6777 111.517 52.5747 111.335C52.4717 111.153 51.4386 111.651 51.5597 112.854C51.6591 113.569 53.1314 113.56 53.8615 113.56C54.5916 113.56 59.5827 113.56 59.5827 113.56C59.5827 113.56 60.185 111.858 59.1251 109.599C58.1874 107.6 53.5075 106.538 52.6938 100.425ZM69.7443 45.1129C70.5014 44.72 71.2466 44.015 71.8949 43.5009C73.0871 42.5666 74.4613 41.3019 75.9935 41.3595C77.5203 41.4607 79.2031 41.3692 80.5791 40.6393C80.679 40.5863 80.6261 40.4371 80.5153 40.4598C79.0389 40.7634 77.566 40.6199 76.1136 40.3664C73.7247 40.1351 71.857 42.0451 70.1532 43.4068C68.4588 44.9488 64.9299 45.6398 62.7848 44.4544C62.688 44.4009 62.5918 44.5287 62.6708 44.6063C64.3992 46.3065 67.6825 46.1102 69.7443 45.1129ZM64.9969 41.776C65.289 39.8397 66.2634 38.9004 68.2874 38.3607C69.1734 38.1302 70.2372 38.1492 71.2805 37.7564C72.1939 37.3621 72.8038 36.6529 73.2799 35.8487C73.3513 35.728 73.2804 35.6559 73.178 35.7417C72.8886 35.9842 72.5989 36.2164 72.2965 36.4218C71.0072 37.4377 69.6601 37.0377 68.0539 37.4316C65.8456 37.9972 64.4154 39.5633 64.8072 41.7784C64.8266 41.8878 64.9803 41.8858 64.9969 41.776ZM69.6634 36.1492C69.9685 36.1328 74.4222 34.4147 76.7846 30.5007C77.9117 28.6338 78.5065 25.4741 79.682 23.695C80.9458 21.7823 83.512 20.8452 83.512 20.8452C83.6727 20.7741 88.2745 19.0861 90.7685 17.7537C89.9315 19.2635 86.1304 21.5654 83.8319 22.9573C83.8319 22.9573 81.8141 24.0345 81.0093 25.1336C80.2663 26.1491 80.091 27.0149 80.3302 27.0621C80.4111 27.0778 80.4879 27.0008 80.5897 26.811C80.7965 26.426 81.0795 25.8991 81.6255 25.4047C82.6114 24.5121 83.4201 24.105 84.1339 23.7461C84.638 23.4923 85.1171 23.2513 85.6058 22.8728C85.589 22.907 86.0838 22.6641 86.4554 22.4654C85.5475 24.321 83.4382 25.8708 81.9745 27.032C80.7622 28.1476 80.271 29.7225 79.6192 31.1235C79.2961 31.791 78.9141 32.4233 78.3356 32.8771C77.934 33.2109 77.4402 33.4292 76.9127 33.5806C77.6897 33.107 78.2552 32.2052 78.2356 31.0152C78.2339 30.9044 78.176 30.8151 78.1553 30.8825C77.5879 32.7361 76.3836 33.3858 74.8915 33.7093C74.8156 33.7257 74.8167 33.8186 74.8954 33.8433C74.9278 33.8535 75.812 34.1935 77.101 33.8136C78.2671 33.4698 78.5393 33.3178 79.181 32.7529C80.7779 31.3475 81.1207 28.7992 82.5623 27.6428C83.7903 26.6671 85.034 25.6874 85.9396 24.3951C86.4356 23.7236 86.8766 22.8937 87.0543 22.0423C87.938 21.297 91.1445 18.9309 91.5835 17.3493C91.6559 17.3245 91.7734 17.2768 91.9339 17.2069C92.2141 17.5909 92.2576 18.5569 92.2385 19.0797C92.228 19.356 92.2805 19.7251 92.361 19.7538C92.4284 19.7779 92.4957 19.7481 92.5171 19.6928C92.8758 18.6694 92.8066 17.1389 92.6831 16.6325C93.0253 16.2202 93.3033 15.6019 93.0756 15.0781C92.9303 14.7442 92.5186 14.3359 91.3833 14.2821C90.6983 13.8331 88.9418 13.3731 87.6852 13.4498C82.4784 13.7646 82.4415 16.4868 82.4148 18.4745C82.3931 20.1045 82.2899 20.0658 81.5063 20.6833C80.3518 21.593 78.4189 23.1164 77.1566 27.376C75.9523 31.9369 71.2918 34.7949 71.2448 34.8232C71.2448 34.8232 69.9631 35.579 69.7462 35.7582C69.565 35.9078 69.5018 36.1578 69.6634 36.1492ZM88.5641 16.2849C88.5208 16.2671 88.4382 16.2678 88.3379 16.4618C88.2624 16.608 87.8407 16.9072 86.2639 17.5019C86.0095 17.5979 83.7013 18.5504 83.5265 18.4937C83.2881 17.9048 84.8011 17.1538 84.9733 17.0558C85.264 16.8909 85.3547 16.8352 85.3264 16.7612C85.3052 16.7073 85.2618 16.6812 84.8208 16.7797C84.3781 16.879 84.0465 17.0371 83.8045 17.1527C83.4552 17.32 83.329 17.3691 83.233 17.2116C83.0397 16.8951 83.2541 16.607 83.4865 16.3689C84.6197 15.364 88.2173 14.9398 90.6415 15.5877C90.2274 15.0578 88.1812 14.301 85.0601 14.9265C85.8927 14.1909 87.8336 14.0971 89.3244 14.3986C90.3562 14.6068 91.0535 14.977 91.1905 15.3885C91.3101 15.7469 90.9288 16.0888 90.9288 16.0888C90.9288 16.0888 91.3564 16.1493 91.6191 15.8029C91.8226 15.5348 91.8731 15.1523 91.8603 14.8985C92.0242 15.1466 92.2236 15.6311 92.1227 16.1003C92.0305 16.527 91.7119 16.8354 91.1722 17.0085C89.3398 17.5954 85.9594 19.1193 85.3769 19.3836C84.5414 19.7623 83.7525 20.1198 83.3146 20.1776C83.205 20.2009 83.1059 20.1653 83.0575 20.0836C82.9879 19.965 83.0407 19.7852 83.1995 19.602C83.5148 19.2393 84.471 18.8665 85.4835 18.4722C86.9075 17.9177 88.3802 17.3439 88.602 16.6325C88.6588 16.4512 88.6443 16.3184 88.5641 16.2849ZM92.1786 27.5315C91.6411 26.4053 90.3607 25.7221 89.1479 25.8592C89.0327 25.8722 88.993 25.9294 89.0859 25.9391C90.2132 26.0586 91.2182 26.7189 91.6332 27.7865C92.1244 28.9735 91.6978 30.2879 92.2718 31.5312C92.6253 32.5302 93.7575 32.8939 94.515 33.4785C95.2478 34.0065 95.547 34.8919 95.7445 35.7468C95.8542 36.2006 95.9167 36.6689 95.9821 37.1419C96.0039 37.2996 96.0882 37.2465 96.1029 37.0559C96.2142 35.5992 96.1173 33.9504 94.9394 32.9484C94.2904 32.3092 93.3071 32.1007 92.974 31.2057C92.4691 30.1113 92.8239 28.6678 92.1786 27.5315ZM106.617 109.624C106.606 109.505 105.815 109.051 103.292 109.774C103.29 109.775 103.287 109.776 103.285 109.777H103.281C103.008 109.804 102.918 109.72 102.893 109.552C102.751 108.585 102.962 107.495 100.611 105.255C100.513 105.158 100.27 105 100.52 104.278C101.107 102.583 102.045 101.391 102.452 98.897C102.678 97.5174 102.759 96.2559 102.273 96.1999C101.788 96.1439 101.875 96.9587 101.693 97.6914C101.691 97.6998 101.157 100.837 99.8941 103.033C98.9052 104.753 99.4868 105.637 99.8604 106.009C101.488 107.633 101.673 108.609 101.675 108.615C101.97 109.614 101.771 110.052 102.047 110.398C102.345 110.77 102.645 110.775 103.177 110.648C103.462 110.58 104.442 110.211 105.28 109.968C106.003 109.757 106.625 109.714 106.617 109.624ZM51.681 110.771C51.8804 110.916 52.4534 110.797 52.7916 110.649C52.7924 110.649 52.7929 110.649 52.7936 110.649C54.0078 110.041 55.8975 110.06 55.8933 109.873C55.87 109.52 54.3535 109.301 52.6761 109.793C52.5442 109.831 52.4116 109.734 52.3963 109.597C52.3746 109.4 52.4101 108.671 51.8289 108.041C51.5769 107.767 49.0544 106.103 48.8418 105.527C48.6842 105.1 48.6101 103.425 48.5906 103.087C48.5015 101.552 48.4129 100.494 48.3056 99.1679C48.3053 99.1626 48.2988 98.7948 48.1289 98.7788C48.0146 98.768 47.9858 98.8968 47.9886 99.1829C47.9889 99.199 47.8099 104.488 47.8142 104.693C47.8317 105.536 47.9256 106.425 48.6306 106.862C49.5056 107.405 50.7037 108.322 51.1196 108.959C51.5109 109.557 51.2292 110.441 51.681 110.771ZM97.5934 39.7409C98.1727 40.2738 97.9348 39.8412 97.8439 39.6257C97.613 39.0789 97.6002 38.7034 97.5732 38.4048C97.4105 36.4513 98.7651 35.529 100.336 34.8235C103.858 32.9786 112.202 34.6606 116.424 31.7348C116.929 31.7611 117.83 31.8343 119.471 31.4339C119.932 31.3214 120.409 31.2053 120.875 31.166C121.311 31.1262 121.644 31.4371 121.784 31.4514C121.953 31.4624 121.638 30.7466 120.861 30.8092C113.734 31.3832 112.515 29.2958 109.506 29.0127C106.275 28.7087 104.206 30.4882 104.262 30.5847C104.317 30.6812 106.527 29.3309 109.379 29.8722C110.677 30.1186 113.405 31.3775 114.605 31.5135C112.824 32.2206 111.245 32.4178 107.741 32.6346C105.256 32.7887 101.675 33.5589 100.649 33.192C99.6838 32.8468 98.8914 32.3817 98.645 31.4078C98.4219 30.1751 99.226 29.3605 100.047 28.6085C100.047 28.6085 100.408 28.2483 100.372 28.1853C100.336 28.1224 99.8875 28.3936 99.8875 28.3936C96.1103 30.826 98.2857 33.5767 99.939 34.0096C95.8851 35.5563 96.6611 38.8832 97.5934 39.7409ZM115.047 20.342C115.563 20.2027 115.78 20.2323 115.874 20.7083C116.334 23.4209 116.998 24.1535 121.835 25.7702C124.315 26.5991 125.888 26.8964 126.929 30.5651C127.275 31.7837 127.101 31.8395 127.439 31.9395C127.735 32.0269 128.537 31.4276 128.65 30.699C129.289 26.5822 124.782 23.6855 124.679 23.7657C124.551 23.8654 125.602 24.8333 126.533 26.2269C127.342 27.4369 128.156 28.5654 127.478 31.0688C127.374 26.7855 124.622 25.8839 123.601 25.4519C122.956 25.1741 119.116 24.2921 117.702 23.0416C116.288 21.7908 116.985 19.1849 115.291 19.6773C113.516 20.1927 111.552 21.3729 111.159 19.0396C111.092 18.4971 111.115 18.3416 111.105 18.1757C111.096 18.0097 111.022 18.0124 110.983 18.1398C110.945 18.2672 110.511 19.462 111.173 20.4911C111.964 21.7211 113.916 20.6467 115.047 20.342ZM112.693 19.429C113.553 19.9085 115.214 18.8517 115.909 18.6585C116.732 18.4295 117.611 18.3884 117.901 20.8531C118.141 22.8885 119.321 23.6797 122.948 22.9819C127.229 22.1586 128.113 22.8877 128.817 23.4695C130.21 24.6208 130.752 26.789 130.752 26.7899C130.977 27.7238 131.478 29.3957 133.381 28.6278C134.063 28.353 134.904 27.7982 135.892 28.0252C136.881 28.2523 136.016 27.5218 135.487 27.4209C134.959 27.3196 134.437 27.2743 133.529 27.7879C131.944 28.6842 131.573 26.7609 131.553 26.6632C131.008 24.0208 129.72 21.7354 127.149 21.6382C124.846 21.5509 120.92 22.6822 119.622 22.0897C117.96 21.3307 119.268 18.6023 116.904 17.888C116.294 17.7036 115.512 18.1207 114.754 18.5244C114.045 18.9015 113.312 19.2914 112.865 19.0957C112.66 19.0065 112.351 18.6703 112.217 17.8203C112.188 17.6387 112.079 17.6495 112.072 17.7715C112.025 18.641 112.407 19.2699 112.693 19.429ZM104.396 32.3599C105.831 32.0069 108.053 30.8676 108.053 30.8676C108.134 30.8313 108.303 30.7188 108.252 30.6416C108.221 30.5967 108.149 30.6321 108.089 30.6594C107.882 30.7536 106.536 31.2201 106.536 31.2201C103.041 32.4952 100.413 31.1931 101.611 29.7118C102.96 30.7861 104.902 28.7762 107.944 28.0728C110.058 27.5847 111.491 28.1305 112.487 28.3998C112.769 28.4762 113.235 28.6727 113.255 28.6078C113.286 28.511 111.322 27.4196 109.651 27.2863C107.348 27.1024 105.593 28.053 103.583 29.1853C102.716 29.6739 102.188 29.5283 101.955 29.4422C102.462 28.8887 103.682 28.3203 104.352 27.5793C105.228 26.6103 105.309 25.7024 104.48 24.6193C104.17 24.2149 103.626 24.0321 102.936 24.0618C101.107 24.1405 101.091 26.7794 101.361 26.8248C101.47 26.8431 101.528 26.5579 101.528 26.5579C101.647 25.9067 101.986 24.83 102.878 24.83C103.033 24.83 104.484 24.866 104.454 26.0595C104.41 27.7847 102.858 27.3345 100.93 29.2644C100.483 29.7118 100.196 30.7589 100.711 31.5188C101.476 32.6468 103.648 32.5433 104.396 32.3599ZM128.827 31.9711C130.224 31.4654 130.679 29.6341 130.643 29.3537C130.607 29.0733 130.543 29.1731 130.543 29.1731C130.362 29.6674 129.25 31.1881 128.773 31.5772C128.439 31.8493 128.358 32.0756 128.827 31.9711ZM108.439 25.8571C110.786 23.084 113.725 24.1044 116.571 25.3595L116.574 25.3608C118.173 26.011 120.046 26.8072 121.817 27.7862C122.684 28.2653 124.307 29.8601 124.452 30.0312C124.574 30.1758 124.668 30.0843 124.452 29.6751C123.419 27.7155 121.457 26.0235 114.744 23.5795C112.499 22.7617 109.397 23.2461 108.216 25.7106C107.978 26.2058 108.218 26.1184 108.439 25.8571ZM109.202 109.088C108.445 108.5 107.196 107.363 106.716 106.521C105.885 105.209 105.666 103.456 105.743 101.916C105.751 101.766 105.829 100.581 105.898 99.4332C105.975 98.15 106.268 96.2704 105.766 96.2029C105.472 96.1633 105.225 96.2614 104.996 98.4205C104.996 98.4212 104.996 98.422 104.996 98.4229C104.773 100.299 104.729 102.494 104.745 102.7C104.911 104.867 105.236 106.394 106.333 107.764C108.052 109.03 108.761 109.894 109.154 110.472C110.025 111.756 110.056 112.016 110.056 112.233C110.056 112.626 109.429 112.625 109.073 112.635C108.94 112.638 105.295 112.624 105.158 112.624C105.158 112.624 105.157 112.625 105.157 112.625C103.785 112.625 103.533 111.53 103.487 111.182C102.853 112.222 103.341 112.968 103.632 113.179C103.92 113.387 104.637 113.56 106.276 113.56H110.794C111.605 113.56 111.33 110.741 109.202 109.088ZM49.4659 88.4209C50.2184 87.6334 51.2707 85.6654 52.274 83.4176C52.4514 83.0201 51.5244 82.9777 51.0336 84.1379C50.3047 85.8613 49.539 87.5057 48.9194 88.4446C48.9194 88.4446 49.1615 88.7395 49.4659 88.4209ZM101.037 83.7182C101.228 84.9497 101.462 85.8669 102.131 86.0697C102.331 86.1303 102.352 85.7928 102.315 85.2666C102.307 85.1608 102.082 82.5963 102.078 82.5469C101.846 79.9692 101.601 77.4621 101.451 75.6098C101.778 75.5424 101.958 75.4997 102.234 75.3956C102.885 75.1499 103.146 74.8229 103.159 74.3223C103.159 74.3188 103.159 74.3152 103.159 74.3117C103.161 74.2169 103.082 74.1469 103.003 74.1735C102.103 74.4776 101.379 74.7551 99.6903 75.1773C99.0615 75.3346 98.3514 75.5311 97.6943 75.6758C97.5613 75.7051 97.6795 76.1516 99.0393 75.9883C99.5234 75.9302 99.9652 75.8669 100.325 75.8107C100.456 77.5864 100.774 81.5136 101.037 83.7182ZM126.505 82.7881C126.186 82.6338 126.433 83.6014 126.768 83.7982C127.913 84.4725 128.549 85.554 127.188 88.2689C126.552 89.5372 123.678 91.4992 123.6 93.6168C123.531 95.4629 124.357 96.3849 124.862 97.3735C125.238 98.1083 125.289 98.6323 125.411 98.6044C125.588 98.564 125.456 96.6022 124.756 95.2978C124.755 95.2955 124.754 95.2935 124.753 95.2915C124.5 94.7837 123.905 93.9769 124.711 92.6361C125.738 90.9284 132.07 85.481 126.505 82.7881ZM120.345 79.9347C119.095 79.623 112.122 78.1812 110.712 76.6343C109.961 75.8115 109.645 73.1101 109.484 74.9668C109.402 75.9107 109.394 76.7879 109.838 77.5374C109.948 77.7236 110.164 77.8722 110.089 78.4326C109.394 83.6149 107.759 87.1042 108.129 87.2275C108.799 87.4509 110.274 82.2324 110.791 79.9288C110.791 79.9282 110.791 79.9276 110.791 79.927C110.966 79.1921 111.738 78.6995 113.174 79.0325C113.209 79.0406 116.842 80.1237 119.726 80.4929C122.126 80.8001 121.061 80.1133 120.345 79.9347ZM132.879 34.7044C132.798 34.2444 132.707 33.9179 132.633 33.7385C132.87 33.6225 133.783 33.171 134.197 32.695C135.282 31.4459 135.292 29.2662 135.292 29.2662C135.292 29.2662 131.552 29.0833 129.538 32.3431C129.368 32.618 128.821 33.6867 128.674 33.9179C128.594 34.0447 128.497 34.2572 128.643 34.1342C128.937 33.8861 129.451 33.4086 129.874 32.7821C131.091 31.3336 132.23 30.4852 134.373 30.1179C134.144 30.9613 134.258 31.7824 133.22 32.6471C131.673 33.937 130.927 34.2366 130.957 34.3396C130.991 34.4576 131.661 34.1951 132.049 34.0187C132.497 34.8047 132.385 38.2884 131.68 40.4177C131.448 41.2506 130.584 41.4486 130.02 43.1514C129.514 44.7071 129.002 54.3527 129.121 54.928C129.429 55.9982 128.875 56.06 128.393 56.6253C128.011 57.0876 127.979 57.4093 127.353 57.5048C126.456 57.6388 126.36 57.1017 124.316 56.3404C123.695 56.1094 123.302 52.4171 123.247 51.6875C122.885 46.9399 119.822 43.78 118.826 41.0431C118.619 40.4747 118.595 39.936 118.391 39.936C118.047 39.936 117.718 42.1409 119.465 44.6168C119.544 44.7295 119.625 44.8482 119.705 44.9716C119.368 45.6446 118.866 46.7995 118.64 48.0867C118.406 49.412 118.427 51.0152 118.586 52.4095C112.714 52.0238 110.054 50.8978 107.902 49.3495C106.067 48.0291 104.27 46.0782 103.579 45.9955C102.527 45.8697 101.454 46.3167 101.454 46.3167C102.51 47.4427 103.945 47.0686 103.945 47.0686C106.456 49.5116 109.773 53.8759 122.63 53.4652C122.665 53.6868 122.891 55.0849 122.903 55.159C119.92 55.3943 117.908 54.8421 117.823 54.9944C117.536 55.5077 118.811 55.6118 118.969 56.036C119.301 56.904 119.582 58.0035 119.733 59.0965C119.879 60.161 121.014 62.4401 121.007 61.7604C120.989 60.0169 120.535 58.3901 120.021 56.1214C120.544 56.1372 122.053 56.1592 123.073 56.034C123.146 56.3498 123.303 56.9495 123.464 57.1129C123.632 57.2836 124.053 57.7115 124.862 57.7979C125.362 57.8511 126.18 58.6155 127.031 58.5859C128.291 58.5366 128.45 58.0284 128.854 57.7504C130.361 56.4522 130.061 53.815 130.092 52.9503C130.223 49.23 131.06 44.8998 131.206 44.1729C131.658 41.979 132.032 42.5717 132.563 41.7051C132.821 41.2837 133.242 38.004 133 35.5874C134.422 34.4253 136.218 33.95 136.865 34.2322C136.707 34.7077 136.126 35.6312 135.208 36.2336C134.61 36.6253 133.97 36.6924 133.39 36.9683C133.644 37.1195 134.334 37.3671 134.89 37.0462C137.16 35.7362 138.147 33.599 137.84 33.4501C137.312 33.1946 134.209 33.1311 132.879 34.7044ZM119.478 52.4437C118.965 48.9771 119.739 46.9903 120.34 46.0272C121.172 47.5173 121.927 49.2864 122.137 50.3186C122.245 50.8503 122.361 51.5481 122.482 52.4722C121.988 52.4959 120.479 52.4716 119.478 52.4437ZM117.559 72.0098C117.602 71.607 117.329 70.8531 117.191 70.8526C117.124 70.8524 116.937 71.5949 116.549 72.0768C116.076 72.6639 115.449 72.7796 115.406 72.8858C115.348 73.0321 118.014 73.4696 118.272 73.4638C118.529 73.458 118.16 72.9665 117.677 72.7006C116.947 72.2988 117.523 72.3557 117.559 72.0098ZM132.302 84.2756C132.016 84.8848 131.529 86.4058 130.771 88.3422C130.453 89.1572 128.444 95.4012 126.987 97.2381C126.987 97.2395 126.217 99.8196 125.39 100.873C124.638 101.843 122.998 102.501 122.998 102.501C122.998 102.501 122.071 98.2305 121.938 97.4411C121.804 96.6515 121.812 96.533 122.514 95.8259C122.81 95.5285 123.173 94.9985 123.027 94.8106C122.88 94.6227 122.804 95.0409 122.493 95.2175C122.022 95.4844 121.136 95.2757 120.926 95.8459C120.586 96.7712 122.113 102.824 122.499 103.832C122.563 103.999 122.747 104.076 122.897 103.999C123.575 103.65 125.321 102.719 125.922 101.959C126.677 101.005 126.85 99.7234 127.139 98.9722C127.335 98.4643 127.516 98.109 127.723 97.7224C127.97 97.4315 128.176 97.0899 128.479 96.5621C129.65 94.5163 132.645 85.5155 132.876 84.7254C132.877 84.7232 132.877 84.7205 132.878 84.7183C133.131 83.9085 132.647 83.3303 132.302 84.2756ZM129.3 77.4779C129.181 77.6559 129.462 78.3762 129.824 78.7133C129.824 78.7133 130.713 78.9737 131.314 79.9377C131.639 80.4582 131.712 80.0249 131.736 79.8747C131.912 78.8 129.55 77.1043 129.3 77.4779ZM81.7675 51.7128C81.8806 52.1066 81.993 52.504 82.1713 52.8737C82.5741 53.709 83.2867 53.9009 83.2642 53.6215C83.2538 53.4921 82.2463 51.765 81.8059 50.7961C81.5749 50.2879 81.3709 50.3305 81.7675 51.7128ZM91.4019 54.8218C91.5536 54.5514 90.119 52.6571 89.2818 51.6929C89.1806 51.5766 88.9797 51.7045 89.0544 51.8378C89.3149 52.3029 89.6757 53.0026 90.1073 53.925C90.2318 54.1909 91.2725 55.0524 91.4019 54.8218ZM93.431 86.339C93.5322 85.8825 93.2122 85.6834 92.8798 85.2382C92.3592 84.5409 92.0946 83.5261 91.8972 82.0808C91.8731 81.8795 91.9026 81.6766 91.6725 81.6766C91.4424 81.6766 91.1225 81.9156 91.1769 82.2417C91.6094 84.8303 91.6343 84.8973 92.4185 86.1206C91.9499 86.1238 91.367 85.8263 90.9374 85.5846C90.1323 85.206 89.8851 84.7049 89.5737 83.8481C89.0472 82.3995 88.5393 82.7561 88.571 82.8831C88.8311 83.701 88.9491 84.3586 89.4061 85.1074C89.8328 86.0748 92.6854 87.89 93.431 86.339ZM91.5642 64.118C91.692 63.1647 91.017 61.7944 90.7458 62.0703C90.6187 62.1997 90.3201 66.8984 90.2915 67.4078L90.2904 67.4071C90.1135 69.4207 90.1954 72.6278 90.3345 74.9994C90.3623 75.4742 90.3371 75.7849 90.5085 75.6177C90.7838 75.3493 90.918 74.5686 90.8957 73.887C90.7788 70.3175 91.2142 66.7295 91.5642 64.118ZM86.5421 67.7179C85.8667 62.3238 87.7321 60.3861 86.4752 59.5263C86.3638 59.4501 86.3338 59.6659 86.2442 60.0736C85.6196 62.9164 84.869 65.4473 86.4849 70.9853C86.8771 72.3296 87.687 74.1237 87.9279 75.6494C88.1091 76.7973 87.7693 76.9689 87.936 77.097C88.0121 77.1554 88.4535 76.9361 88.5773 76.5363C88.6781 76.2299 88.7314 75.7228 88.6941 75.4048C88.5899 74.5182 86.8812 70.4263 86.5421 67.7179ZM44.4718 78.3241C44.2012 78.2338 43.6712 79.0307 43.4574 79.3571C42.8151 80.3379 39.921 84.198 41.7849 88.7915C42.9307 91.6151 45.2569 91.8927 49.3185 90.5253C51.4705 89.8008 52.8606 90.6733 53.7409 90.768C54.2289 90.8205 55.11 90.6898 54.7887 90.5417C50.6905 88.8184 51.1101 89.7497 46.0371 90.3673C42.7275 90.7702 40.9087 86.5355 43.4513 81.627C43.7818 80.989 44.7425 78.4145 44.4718 78.3241ZM62.4367 101.195C58.7972 101.958 55.4995 99.5903 52.8799 95.7341C51.5539 93.7821 49.3895 94.4043 47.0326 94.1766C41.8516 93.6761 35.9369 87.0976 41.9131 76.8152C42.7664 75.3471 41.6713 72.9387 41.306 73.0385C41.0664 73.1039 41.9525 74.61 41.0026 76.3236C33.7445 89.4172 42.9382 95.911 48.2845 95.4648C50.5188 95.2783 51.4265 95.5114 52.1867 96.4282C53.8983 98.4921 55.8736 101.987 60.4672 101.97C62.5779 101.904 63.0931 101.222 63.0746 101.093C63.0562 100.964 62.7258 101.134 62.4367 101.195ZM50.5886 61.8423C50.5886 61.8423 50.6064 61.359 50.4657 61.4715C49.6918 62.0902 49.4593 64.3867 49.6389 65.6163C50.3297 70.3465 52.5969 73.755 52.9938 74.372C54.1989 76.2458 53.274 77.7187 53.4602 77.7413C54.4467 77.8613 54.7539 75.4822 54.3677 74.7493C54.1859 74.4043 50.5326 68.6213 50.5886 61.8423ZM50.7341 97.3178C50.7175 97.1517 49.9835 97.0872 48.7442 97.1255C39.5194 97.4112 37.635 90.4014 36.9256 87.2578C36.4337 85.0778 36.3129 82.2036 36.0486 81.758C35.7844 81.3124 35.1185 83.7174 35.2907 84.6993C35.5856 86.3816 35.9054 87.7037 36.1475 88.7957C38.5281 99.5353 49.3636 97.7341 49.3636 97.7341C49.3636 97.7341 50.7516 97.4926 50.7341 97.3178ZM36.4629 94.3017C33.4368 91.8523 35.1847 87.306 33.6101 84.1021C33.2868 83.4072 32.0028 83.2036 32.1528 83.5462C32.7796 84.9786 33.3687 85.8921 33.4629 88.1148C33.5647 90.5184 33.5516 93.8052 36.3801 94.7905C36.618 94.8733 37.6947 95.2988 36.4629 94.3017ZM31.2743 73.6765C30.5764 76.2969 31.2205 77.2154 31.2492 77.2205C32.0967 77.3702 31.6714 75.8387 32.1962 73.9993C32.2405 73.8441 32.4679 73.3955 32.7623 72.8226C32.8412 72.685 32.914 72.558 32.9688 72.4517C33.2254 71.9537 33.6379 71.14 33.9634 70.4014C34.3478 69.5521 34.5876 68.8628 34.3893 68.76C34.1908 68.6571 31.7801 71.7766 31.2743 73.6765ZM35.111 67.0984C35.2983 67.2697 36.524 66.3858 37.1725 64.8539C38.2699 61.723 37.1226 55.7776 45.7034 53.2297C48.7613 52.3216 51.2808 52.4259 53.117 52.5097C53.083 52.5529 53.0495 52.5962 53.0169 52.6399C52.0208 52.6553 44.2698 52.7735 41.376 57.6196C40.717 58.7229 40.2996 60.3168 40.235 61.6052C40.0291 65.7132 38.6422 66.8462 38.9046 67.0693C39.1669 67.2924 40.7695 65.9397 40.964 63.9213C41.0673 62.8506 41.0794 60.7633 42.0115 58.6254C44.0878 53.8637 50.8447 53.1998 52.6929 53.1206C52.6752 53.1501 52.6579 53.1797 52.6409 53.2094C43.3761 55.0616 42.6905 61.3096 42.9595 61.3232C43.3598 61.3435 44.5039 55.4823 53.4675 53.4405C54.8485 51.5312 58.7985 48.3265 65.7828 48.3265C66.2594 48.3265 67.234 48.3991 67.2432 48.1122C67.2558 47.72 66.0212 47.6835 66.0212 47.6835C64.2751 47.6835 57.703 47.6284 53.3688 52.1276C48.083 51.2985 37.2137 52.5019 36.6476 62.6957C36.4782 65.7472 34.9237 66.927 35.111 67.0984Z" fill="white"></path>
</g>
<defs>
<clipPath id="clip0_29937_33906">
<rect width="172" height="127" fill="white"></rect>
</clipPath>
</defs>
</svg>
