<svg xmlns="http://www.w3.org/2000/svg" fill="none" viewBox="0 0 36 36" height="36" width="36">
<path fill="#FFECEB" d="M30.8395 15.4201H30.8795L19.3495 30.6501C18.6695 31.5501 17.3195 31.5501 16.6295 30.6501L5.10953 15.4201H5.15953C4.43953 14.3401 4.01953 13.0601 4.01953 11.6801C4.01953 7.82005 7.26953 4.68005 11.2895 4.68005C14.3095 4.68005 16.9095 6.47005 17.9995 8.99005C19.0795 6.46005 21.6795 4.68005 24.6995 4.68005C28.7195 4.68005 31.9695 7.82005 31.9695 11.6801C31.9695 13.0501 31.5495 14.3301 30.8295 15.4201H30.8395Z"></path>
<path fill="#212121" d="M17.9895 32.32C17.1395 32.32 16.3495 31.93 15.8395 31.25L4.30953 16.02C4.22953 15.92 4.16953 15.8 4.13953 15.67C3.40953 14.45 3.01953 13.08 3.01953 11.67C3.01953 7.26004 6.72953 3.67004 11.2895 3.67004C13.9895 3.67004 16.4695 4.93004 17.9995 6.99004C19.5195 4.93004 21.9995 3.67004 24.6995 3.67004C29.2595 3.67004 32.9695 7.26004 32.9695 11.67C32.9695 13.09 32.5795 14.47 31.8295 15.7C31.7995 15.81 31.7395 15.92 31.6695 16.01L20.1395 31.24C19.6195 31.92 18.8395 32.31 17.9795 32.31L17.9895 32.32ZM6.09953 15.07L17.4295 30.04C17.5595 30.22 17.7695 30.32 17.9895 30.32C18.2095 30.32 18.4195 30.22 18.5495 30.04L29.9095 15.04C29.9295 14.98 29.9595 14.92 29.9995 14.87C30.6295 13.91 30.9695 12.81 30.9695 11.69C30.9695 8.38004 28.1595 5.69004 24.6995 5.69004C22.1495 5.69004 19.8895 7.15004 18.9195 9.40004C18.7595 9.77004 18.3995 10.01 17.9995 10.01C17.5995 10.01 17.2395 9.77004 17.0795 9.41004C16.0995 7.16004 13.8295 5.70004 11.2895 5.70004C7.82953 5.70004 5.01953 8.39004 5.01953 11.7C5.01953 12.83 5.35953 13.93 5.98953 14.88C6.02953 14.94 6.06953 15.01 6.08953 15.08L6.09953 15.07Z"></path>
</svg>
