<svg xmlns="http://www.w3.org/2000/svg" fill="none" viewBox="0 0 36 36" height="36" width="36">
<path fill="#FFECEB" d="M22.5511 26.61C17.5411 31.62 6.9411 32.39 5.5911 31.05C3.6811 29.14 5.0111 19.11 10.0311 14.09C15.0511 9.07002 21.9111 7.81002 25.3711 11.27C28.8311 14.73 27.5711 21.59 22.5511 26.61Z"></path>
<path fill="white" d="M19.5511 12.5C18.8011 12.48 18.0211 12.26 17.2811 11.81C16.2111 11.16 15.0711 10.45 15.0711 10.45L11.1211 8.01997L14.8111 6.02997C14.8111 6.02997 15.8811 5.45997 16.8811 4.91997C17.5711 4.54997 18.3311 4.41997 19.0811 4.48997C19.8311 4.50997 20.6111 4.72997 21.3511 5.17997C22.4211 5.82997 23.5611 6.53997 23.5611 6.53997L27.5111 8.96997L23.8211 10.96C23.8211 10.96 22.7511 11.53 21.7511 12.07C21.0611 12.44 20.3011 12.57 19.5511 12.5Z"></path>
<path fill="#212121" d="M19.9215 13.52C19.7815 13.52 19.6315 13.52 19.4915 13.5C18.5515 13.47 17.6115 13.18 16.7615 12.67L10.6015 8.87999C10.3015 8.68999 10.1115 8.35999 10.1215 7.99999C10.1315 7.63999 10.3315 7.31999 10.6515 7.14999L16.4215 4.04999C17.2615 3.59999 18.2115 3.41999 19.1815 3.49999C20.0615 3.51999 21.0215 3.80999 21.8815 4.32999L28.0415 8.11999C28.3415 8.30999 28.5315 8.63999 28.5215 8.99999C28.5115 9.35999 28.3115 9.67999 27.9915 9.84999L22.2215 12.95C21.5215 13.32 20.7315 13.52 19.9315 13.52H19.9215ZM13.1215 8.08999L17.8015 10.96C18.3615 11.3 18.9715 11.49 19.5715 11.5C19.5915 11.5 19.6215 11.5 19.6415 11.5C20.2215 11.55 20.7915 11.44 21.2815 11.18L25.5115 8.90999L20.8315 6.03999C20.2715 5.69999 19.6615 5.50999 19.0615 5.49999C18.4115 5.43999 17.8415 5.54999 17.3515 5.80999L13.1215 8.07999V8.08999Z"></path>
<path fill="white" d="M24.1119 17.05C24.1319 17.8 24.3519 18.58 24.8019 19.32C25.4519 20.39 26.1619 21.53 26.1619 21.53L28.5919 25.48L30.5819 21.79C30.5819 21.79 31.1519 20.72 31.6919 19.72C32.0619 19.03 32.1919 18.27 32.1219 17.52C32.1019 16.77 31.8819 15.99 31.4319 15.25C30.7819 14.18 30.0719 13.04 30.0719 13.04L27.6419 9.08997L25.6519 12.78C25.6519 12.78 25.0819 13.85 24.5419 14.85C24.1719 15.54 24.0419 16.3 24.1119 17.05Z"></path>
<path fill="#212121" d="M28.5916 26.48C28.2416 26.48 27.9216 26.3 27.7416 26L23.9516 19.84C23.4316 18.99 23.1416 18.05 23.1116 17.11C23.0316 16.15 23.2216 15.21 23.6616 14.38L26.7616 8.60999C26.9316 8.29999 27.2516 8.08999 27.6116 8.07999C27.9716 8.06999 28.3016 8.24999 28.4916 8.55999L32.2716 14.72C32.7916 15.58 33.0816 16.54 33.1116 17.48C33.1916 18.38 33.0116 19.34 32.5616 20.18L29.4616 25.95C29.2916 26.26 28.9716 26.47 28.6116 26.48C28.6116 26.48 28.5916 26.48 28.5816 26.48H28.5916ZM27.7016 11.09L25.4316 15.32C25.1716 15.81 25.0616 16.38 25.1116 16.96C25.1116 16.98 25.1116 17.01 25.1116 17.03C25.1216 17.63 25.3116 18.24 25.6516 18.8L28.5216 23.48L30.7916 19.25C31.0516 18.76 31.1616 18.19 31.1116 17.61C31.0916 16.95 30.9016 16.33 30.5616 15.77L27.6916 11.09H27.7016Z"></path>
<path fill="#212121" d="M8.64938 32.81C6.82938 32.81 5.41938 32.51 4.83938 31.92C2.41938 29.5 3.90938 18.91 9.26938 13.55C10.9294 11.89 12.8794 10.55 14.8994 9.67001C15.3994 9.45001 15.9994 9.68001 16.2094 10.19C16.4294 10.7 16.1994 11.29 15.6894 11.5C13.8994 12.27 12.1694 13.47 10.6794 14.95C5.87938 19.75 4.85938 29.1 6.24938 30.49C7.38938 31.3 17.1394 30.7 21.7894 26.05C23.2794 24.56 24.4694 22.85 25.2394 21.08C25.4594 20.57 26.0494 20.34 26.5594 20.56C27.0694 20.78 27.2994 21.37 27.0794 21.88C26.2094 23.87 24.8794 25.8 23.2094 27.46C19.5594 31.11 12.9494 32.79 8.65938 32.79L8.64938 32.81Z"></path>
<path fill="#212121" d="M5.68807 32.02C5.33807 32.02 5.06806 31.94 4.88806 31.76C3.10806 29.98 9.30806 21.18 13.2081 17.28C15.5881 14.9 18.1081 12.86 20.2781 11.55C20.7481 11.27 21.3681 11.42 21.6481 11.89C21.9381 12.36 21.7781 12.98 21.3081 13.26C19.2681 14.49 16.8881 16.42 14.6181 18.7C10.8181 22.5 7.75806 27.49 6.80806 29.75C9.12807 28.74 14.2581 25.73 17.9481 22.04C20.1881 19.8 22.1081 17.45 23.3381 15.42C23.6281 14.95 24.2381 14.8 24.7081 15.09C25.1781 15.38 25.3281 15.99 25.0381 16.46C23.7281 18.62 21.7081 21.1 19.3581 23.45C16.1081 26.7 8.46806 32.03 5.67806 32.03L5.68807 32.02Z"></path>
<path fill="#212121" d="M26.3697 11.22C26.1097 11.22 25.8597 11.12 25.6597 10.93C25.2697 10.54 25.2697 9.90998 25.6597 9.51998L29.5997 5.57998C29.9897 5.18998 30.6197 5.18998 31.0097 5.57998C31.3997 5.96998 31.3997 6.59998 31.0097 6.98998L27.0697 10.93C26.8697 11.13 26.6197 11.22 26.3597 11.22H26.3697Z"></path>
<path fill="#212121" d="M28.1403 17.73C27.6203 17.73 27.1903 17.33 27.1403 16.81L26.5803 9.88L19.3803 9.14C18.8303 9.08 18.4303 8.59 18.4903 8.04C18.5503 7.49 19.0303 7.09 19.5903 7.15L27.6103 7.98C28.0903 8.03 28.4603 8.41 28.5003 8.89L29.1303 16.65C29.1703 17.2 28.7603 17.68 28.2103 17.73C28.1803 17.73 28.1503 17.73 28.1303 17.73H28.1403Z"></path>
</svg>
